<?xml version="1.0" standalone="no"?>
<!DOCTYPE svg PUBLIC "-//W3C//DTD SVG 20010904//EN"
 "http://www.w3.org/TR/2001/REC-SVG-20010904/DTD/svg10.dtd">
<svg version="1.0" xmlns="http://www.w3.org/2000/svg"
 width="225.000000pt" height="225.000000pt" viewBox="0 0 225.000000 225.000000"
 preserveAspectRatio="xMidYMid meet">

<g transform="translate(0.000000,225.000000) scale(0.100000,-0.100000)"
fill="#000000" stroke="none">
<path d="M0 1125 l0 -1125 369 0 368 0 -5 25 c-2 14 1 38 7 54 10 23 9 39 -5
86 -22 77 -14 145 25 223 22 44 29 69 25 90 -5 23 0 36 25 65 73 82 171 404
171 560 0 36 -1 37 -39 37 -31 0 -44 6 -60 26 -12 15 -21 37 -21 49 0 25 51
75 76 75 11 0 14 18 14 86 0 78 -3 89 -29 127 -15 23 -51 82 -80 132 -64 112
-68 157 -18 211 24 27 43 37 77 41 32 4 53 15 72 35 14 15 37 28 50 28 18 0
28 11 45 50 12 28 19 50 16 50 -3 0 -21 -9 -39 -20 l-33 -21 -17 26 c-19 29
-15 104 6 130 11 13 17 12 47 -11 43 -33 52 -25 24 21 -28 48 -27 53 12 64 21
6 -160 10 -525 10 l-558 1 0 -1125z"/>
<path d="M1178 2239 c38 -11 39 -16 11 -64 -12 -20 -20 -38 -17 -40 2 -3 20 7
40 20 42 28 55 21 65 -38 6 -37 -12 -107 -28 -107 -5 0 -23 10 -39 22 -38 28
-50 16 -22 -22 12 -16 22 -34 22 -39 0 -6 16 -17 35 -25 19 -8 35 -22 35 -30
0 -10 15 -17 44 -21 81 -12 136 -67 136 -135 0 -27 -39 -103 -106 -207 l-54
-84 0 -89 c0 -75 3 -90 15 -90 26 0 65 -47 65 -77 0 -48 -25 -73 -72 -73 l-41
0 6 -82 c14 -168 109 -443 181 -521 27 -29 33 -56 16 -73 -7 -7 0 -32 22 -80
28 -58 33 -80 33 -139 0 -47 -6 -81 -18 -103 -16 -29 -16 -35 -2 -62 30 -58
23 -69 -52 -73 -38 -2 127 -4 365 -5 l432 -2 0 1125 0 1125 -552 -1 c-363 0
-542 -4 -520 -10z"/>
</g>
</svg>
