<?xml version="1.0" standalone="no"?>
<!DOCTYPE svg PUBLIC "-//W3C//DTD SVG 20010904//EN"
 "http://www.w3.org/TR/2001/REC-SVG-20010904/DTD/svg10.dtd">
<svg version="1.0" xmlns="http://www.w3.org/2000/svg"
 width="900.000000pt" height="863.000000pt" viewBox="0 0 900.000000 863.000000"
 preserveAspectRatio="xMidYMid meet">

<g transform="translate(0.000000,863.000000) scale(0.100000,-0.100000)"
fill="#000000" stroke="none">
<path d="M4319 6300 c-638 -74 -1186 -514 -1393 -1120 -69 -203 -80 -277 -80
-535 0 -198 3 -243 21 -325 64 -283 143 -448 673 -1397 96 -171 176 -310 178
-308 2 1 10 49 17 105 27 190 112 398 226 550 62 82 167 188 154 155 -43 -112
-58 -178 -63 -276 -4 -98 -3 -111 20 -161 45 -97 111 -139 218 -140 53 0 81 5
126 26 149 68 206 201 154 356 -26 77 -44 111 -162 293 -166 255 -221 408
-221 612 0 61 5 139 12 175 21 109 82 279 146 405 52 104 220 375 231 375 3 0
0 -8 -5 -19 -24 -43 -62 -203 -72 -294 -25 -243 55 -548 225 -858 86 -157 198
-327 389 -590 177 -244 226 -328 260 -448 l24 -83 35 63 c19 35 113 204 208
374 243 435 400 747 443 880 67 208 81 295 81 525 0 222 -14 323 -70 501 -187
592 -683 1027 -1304 1144 -102 19 -365 27 -471 15z m282 -443 c22 -15 39 -38
49 -65 13 -37 13 -47 0 -84 -22 -64 -60 -84 -172 -92 -324 -25 -584 -169 -769
-426 -101 -140 -178 -368 -179 -528 0 -34 -6 -78 -14 -97 -38 -90 -176 -101
-232 -18 -39 57 -11 319 52 495 35 97 86 197 147 288 67 100 242 274 342 339
204 133 436 207 656 210 74 1 91 -2 120 -22z"/>
<path d="M3817 1318 c-40 -23 -77 -86 -77 -129 1 -42 37 -108 72 -129 32 -20
45 -20 700 -18 l668 3 36 36 c75 75 57 194 -37 241 -31 17 -84 18 -679 18
-644 0 -645 0 -683 -22z"/>
<path d="M3817 828 c-40 -23 -77 -86 -77 -129 1 -43 36 -105 73 -128 l35 -21
666 2 666 3 36 36 c75 75 56 196 -38 245 -22 12 -139 14 -675 14 -647 0 -648
0 -686 -22z"/>
<path d="M4100 338 c-77 -53 -97 -136 -52 -210 42 -67 47 -68 459 -68 350 0
370 1 401 20 45 28 72 76 72 130 0 54 -27 102 -72 130 -31 19 -51 20 -404 20
-368 0 -371 0 -404 -22z"/>
</g>
</svg>
